<?xml version="1.0" standalone="no"?>
<!DOCTYPE svg PUBLIC "-//W3C//DTD SVG 20010904//EN"
 "http://www.w3.org/TR/2001/REC-SVG-20010904/DTD/svg10.dtd">
<svg version="1.0" xmlns="http://www.w3.org/2000/svg"
 width="8.000000pt" height="8.000000pt" viewBox="0 0 8.000000 8.000000"
 preserveAspectRatio="xMidYMid meet">

<g transform="translate(0.000000,8.000000) scale(0.100000,-0.100000)"
fill="#000000" stroke="none">
<path d="M2 53 c2 -14 10 -28 18 -30 12 -4 12 -3 2 5 -11 7 -9 10 6 14 11 3
26 1 33 -4 10 -7 9 -8 -6 -3 -15 5 -17 3 -8 -6 16 -16 33 -2 33 27 0 21 -4 24
-41 24 -38 0 -40 -2 -37 -27z"/>
</g>
</svg>
